<?xml version="1.0" encoding="UTF-8"?>
<svg xmlns="http://www.w3.org/2000/svg" width="500" height="620" viewBox="0 0 500 620">
  <defs>
    <clipPath id="card-clip">
      <rect width="500" height="620" rx="24" ry="24"/>
    </clipPath>
  </defs>

  <!-- Card background -->
  <rect width="500" height="620" rx="24" ry="24" fill="#ffffff"/>

  <!-- Header bar -->
  <rect width="500" height="100" fill="#D9A85D" clip-path="url(#card-clip)"/>
  <text x="250" y="42" text-anchor="middle" font-family="Georgia, serif" font-size="20" font-weight="bold" fill="#ffffff" letter-spacing="0.5">Gilt Counselling Consult</text>
  <text x="250" y="68" text-anchor="middle" font-family="Arial, sans-serif" font-size="12" fill="rgba(255,255,255,0.85)" letter-spacing="1.5">COUNSELLING · COMMUNITY · CARE</text>
  <line x1="205" y1="80" x2="295" y2="80" stroke="rgba(255,255,255,0.45)" stroke-width="1"/>

  <!-- Platform icon (36×36) -->
  <path d="M13.828 10.172a4 4 0 00-5.656 0l-4 4a4 4 0 105.656 5.656l1.102-1.101m-.758-4.899a4 4 0 005.656 0l4-4a4 4 0 00-5.656-5.656l-1.1 1.1" fill="none" stroke="#D9A85D" stroke-width="2" stroke-linecap="round" stroke-linejoin="round" transform="translate(232, 112) scale(1.5)"/>

  <!-- Platform name and handle -->
  <text x="250" y="166" text-anchor="middle" font-family="Georgia, serif" font-size="22" font-weight="bold" fill="#1a1a1a">All Social Links</text>
  <text x="250" y="190" text-anchor="middle" font-family="Arial, sans-serif" font-size="14" fill="#666666">giltcounselling.com/links</text>

  <!-- QR Code -->
  <rect x="90" y="200" width="320" height="320" rx="10" fill="#f7f7f7"/>
  <svg x="100" y="210" width="300" height="300" viewBox="0 0 35 35">
    <path fill="#ffffff" d="M0 0h35v35H0z"/><path stroke="#000000" d="M1 1.5h7m2 0h1m1 0h2m3 0h3m1 0h3m1 0h1m1 0h7M1 2.5h1m5 0h1m1 0h1m1 0h3m1 0h1m1 0h1m2 0h1m2 0h1m3 0h1m5 0h1M1 3.5h1m1 0h3m1 0h1m1 0h1m2 0h2m1 0h1m1 0h1m2 0h1m1 0h1m2 0h1m1 0h1m1 0h3m1 0h1M1 4.5h1m1 0h3m1 0h1m1 0h1m3 0h1m1 0h2m2 0h2m1 0h4m1 0h1m1 0h3m1 0h1M1 5.5h1m1 0h3m1 0h1m1 0h2m1 0h3m1 0h1m1 0h2m1 0h1m1 0h1m3 0h1m1 0h3m1 0h1M1 6.5h1m5 0h1m1 0h4m2 0h2m1 0h1m2 0h3m1 0h1m1 0h1m5 0h1M1 7.5h7m1 0h1m1 0h1m1 0h1m1 0h1m1 0h1m1 0h1m1 0h1m1 0h1m1 0h1m1 0h7M12 8.5h1m1 0h2m2 0h2m1 0h1m2 0h1M3 9.5h1m2 0h5m2 0h2m3 0h1m1 0h1m4 0h2m1 0h5M1 10.5h2m2 0h1m2 0h2m1 0h3m4 0h2m1 0h1m2 0h1m1 0h3m1 0h1m2 0h1M1 11.5h1m2 0h6m3 0h8m2 0h2m2 0h3m1 0h1m1 0h1M1 12.5h1m2 0h1m3 0h1m1 0h2m1 0h1m2 0h1m4 0h1m1 0h3m2 0h1m1 0h1m1 0h2M2 13.5h1m1 0h2m1 0h3m3 0h1m1 0h4m1 0h5m2 0h2m1 0h1m2 0h1M1 14.5h1m1 0h2m1 0h1m2 0h1m1 0h3m3 0h1m1 0h1m2 0h1m1 0h2m1 0h2m1 0h2m1 0h1M2 15.5h2m2 0h2m1 0h3m1 0h1m2 0h1m1 0h3m3 0h1m1 0h1m1 0h2m1 0h1m1 0h1M4 16.5h3m1 0h2m1 0h2m2 0h1m1 0h2m1 0h2m1 0h4m1 0h2m2 0h1M1 17.5h2m1 0h2m1 0h1m10 0h2m1 0h1m1 0h1m3 0h2m1 0h1m1 0h2M1 18.5h1m1 0h1m4 0h3m2 0h1m1 0h4m1 0h1m1 0h1m1 0h1m2 0h2m2 0h1m1 0h1M1 19.5h2m1 0h1m2 0h1m2 0h5m1 0h5m3 0h1m1 0h1m1 0h4m1 0h1M1 20.5h1m2 0h1m4 0h3m4 0h1m1 0h1m1 0h2m2 0h1m1 0h1m1 0h3m1 0h2M4 21.5h1m1 0h2m2 0h1m3 0h3m2 0h1m4 0h2m1 0h1M2 22.5h3m1 0h1m1 0h5m5 0h2m1 0h1m1 0h3m1 0h2m2 0h1m1 0h1M1 23.5h3m1 0h1m1 0h1m1 0h1m4 0h1m1 0h2m1 0h3m1 0h7m1 0h1m1 0h1M5 24.5h1m2 0h2m1 0h10m2 0h3m2 0h3m1 0h2M1 25.5h2m1 0h4m2 0h4m1 0h1m1 0h3m5 0h6m1 0h2M9 26.5h1m2 0h2m2 0h2m2 0h3m2 0h1m3 0h3m1 0h1M1 27.5h7m1 0h1m1 0h2m2 0h1m1 0h1m3 0h1m3 0h1m1 0h1m1 0h3m1 0h1M1 28.5h1m5 0h1m1 0h1m1 0h2m1 0h2m4 0h1m1 0h1m1 0h2m3 0h2m1 0h2M1 29.5h1m1 0h3m1 0h1m5 0h2m1 0h2m1 0h2m1 0h1m1 0h7M1 30.5h1m1 0h3m1 0h1m3 0h1m1 0h1m1 0h3m1 0h3m3 0h2m1 0h4m1 0h1M1 31.5h1m1 0h3m1 0h1m1 0h2m2 0h2m1 0h4m1 0h2m6 0h1m2 0h2M1 32.5h1m5 0h1m3 0h1m2 0h5m1 0h3m2 0h1m4 0h1M1 33.5h7m2 0h3m1 0h1m2 0h1m2 0h1m2 0h1m1 0h1m3 0h2m2 0h1"/>
  </svg>

  <!-- Scan instruction -->
  <text x="250" y="534" text-anchor="middle" font-family="Arial, sans-serif" font-size="12" fill="#999999">Scan to visit all our social links</text>

  <!-- Footer bar -->
  <rect y="540" width="500" height="80" fill="#D9A85D" clip-path="url(#card-clip)"/>
  <text x="250" y="570" text-anchor="middle" font-family="Arial, sans-serif" font-size="11" fill="rgba(255,255,255,0.80)" letter-spacing="1.5">FOLLOW · CONNECT · SHARE</text>
  <text x="250" y="596" text-anchor="middle" font-family="Georgia, serif" font-size="17" font-weight="bold" fill="#ffffff">giltcounselling.com</text>

  <!-- Card border -->
  <rect width="500" height="620" rx="24" ry="24" fill="none" stroke="#D9A85D" stroke-width="2.5"/>
</svg>