<?xml version="1.0" encoding="UTF-8"?>
<svg xmlns="http://www.w3.org/2000/svg" width="500" height="620" viewBox="0 0 500 620">
  <defs>
    <clipPath id="card-clip">
      <rect width="500" height="620" rx="24" ry="24"/>
    </clipPath>
  </defs>

  <!-- Card background -->
  <rect width="500" height="620" rx="24" ry="24" fill="#ffffff"/>

  <!-- Header bar -->
  <rect width="500" height="100" fill="#D9A85D" clip-path="url(#card-clip)"/>
  <text x="250" y="42" text-anchor="middle" font-family="Georgia, serif" font-size="20" font-weight="bold" fill="#ffffff" letter-spacing="0.5">Gilt Counselling Consult</text>
  <text x="250" y="68" text-anchor="middle" font-family="Arial, sans-serif" font-size="12" fill="rgba(255,255,255,0.85)" letter-spacing="1.5">COUNSELLING · COMMUNITY · CARE</text>
  <line x1="205" y1="80" x2="295" y2="80" stroke="rgba(255,255,255,0.45)" stroke-width="1"/>

  <!-- Platform icon (36×36) -->
  <path d="M24 12.073c0-6.627-5.373-12-12-12s-12 5.373-12 12c0 5.99 4.388 10.954 10.125 11.854v-8.385H7.078v-3.47h3.047V9.43c0-3.007 1.792-4.669 4.533-4.669 1.312 0 2.686.235 2.686.235v2.953H15.83c-1.491 0-1.956.925-1.956 1.874v2.25h3.328l-.532 3.47h-2.796v8.385C19.612 23.027 24 18.062 24 12.073z" fill="#1877F2" transform="translate(232, 112) scale(1.5)"/>

  <!-- Platform name and handle -->
  <text x="250" y="166" text-anchor="middle" font-family="Georgia, serif" font-size="22" font-weight="bold" fill="#1a1a1a">Facebook</text>
  <text x="250" y="190" text-anchor="middle" font-family="Arial, sans-serif" font-size="14" fill="#666666">Gilt Counselling Consult</text>

  <!-- QR Code -->
  <rect x="90" y="200" width="320" height="320" rx="10" fill="#f7f7f7"/>
  <svg x="100" y="210" width="300" height="300" viewBox="0 0 43 43">
    <path fill="#ffffff" d="M0 0h43v43H0z"/><path stroke="#000000" d="M1 1.5h7m2 0h1m4 0h2m1 0h1m2 0h3m2 0h1m1 0h1m2 0h1m3 0h7M1 2.5h1m5 0h1m6 0h1m4 0h3m4 0h5m1 0h1m2 0h1m5 0h1M1 3.5h1m1 0h3m1 0h1m1 0h2m1 0h1m1 0h1m1 0h2m1 0h1m1 0h1m4 0h2m2 0h3m2 0h1m1 0h3m1 0h1M1 4.5h1m1 0h3m1 0h1m1 0h3m1 0h1m3 0h1m1 0h1m1 0h2m1 0h1m2 0h1m1 0h1m2 0h2m1 0h1m1 0h3m1 0h1M1 5.5h1m1 0h3m1 0h1m3 0h2m3 0h2m3 0h3m5 0h4m2 0h1m1 0h3m1 0h1M1 6.5h1m5 0h1m4 0h1m3 0h1m4 0h2m1 0h1m8 0h1m1 0h1m5 0h1M1 7.5h7m1 0h1m1 0h1m1 0h1m1 0h1m1 0h1m1 0h1m1 0h1m1 0h1m1 0h1m1 0h1m1 0h1m1 0h1m1 0h1m1 0h7M10 8.5h2m2 0h2m4 0h2m1 0h2m1 0h1m1 0h2M4 9.5h2m1 0h2m1 0h1m1 0h1m1 0h1m1 0h1m3 0h3m2 0h2m2 0h2m2 0h1m4 0h2M1 10.5h5m2 0h7m2 0h1m1 0h3m1 0h1m3 0h2m1 0h1m1 0h1m3 0h2M3 11.5h1m2 0h2m1 0h1m1 0h2m2 0h4m4 0h3m2 0h1m1 0h1m4 0h3m1 0h2M2 12.5h3m4 0h1m2 0h1m1 0h2m1 0h1m4 0h2m2 0h1m1 0h1m1 0h1m1 0h2m2 0h3m2 0h1M1 13.5h1m1 0h1m3 0h2m1 0h1m2 0h1m1 0h3m1 0h1m2 0h2m2 0h4m1 0h1m4 0h1M2 14.5h1m1 0h2m2 0h2m1 0h1m1 0h9m2 0h1m4 0h1m1 0h3m2 0h2m1 0h1m1 0h1M1 15.5h1m1 0h2m2 0h5m2 0h9m3 0h2m1 0h1m2 0h5m4 0h1M2 16.5h1m1 0h3m2 0h2m1 0h2m2 0h1m1 0h3m1 0h2m3 0h2m2 0h1m1 0h2m1 0h1m1 0h4M1 17.5h12m1 0h5m3 0h2m1 0h1m5 0h1m1 0h2m5 0h2M2 18.5h3m5 0h2m3 0h1m3 0h2m2 0h1m2 0h1m1 0h1m1 0h1m1 0h3m2 0h3M1 19.5h3m1 0h4m1 0h3m1 0h2m1 0h1m10 0h5m1 0h1m1 0h4m1 0h1M2 20.5h3m3 0h1m2 0h1m1 0h2m4 0h3m6 0h1m5 0h2m1 0h1m1 0h3M1 21.5h1m2 0h1m2 0h1m2 0h1m1 0h1m2 0h2m1 0h1m1 0h1m1 0h1m3 0h1m2 0h1m1 0h1m2 0h2m1 0h5M1 22.5h1m1 0h1m1 0h1m2 0h3m1 0h1m1 0h4m1 0h2m2 0h1m3 0h2m3 0h1m4 0h1m1 0h1M1 23.5h3m2 0h4m2 0h2m3 0h3m3 0h1m4 0h1m5 0h5M2 24.5h2m2 0h1m2 0h2m3 0h1m1 0h1m1 0h3m1 0h3m2 0h4m1 0h1m2 0h2m2 0h1m1 0h1M1 25.5h1m3 0h5m1 0h1m1 0h1m8 0h1m1 0h2m2 0h2m2 0h2m1 0h1m3 0h2M1 26.5h1m2 0h1m1 0h1m2 0h3m2 0h1m1 0h4m1 0h1m1 0h1m1 0h6m2 0h5m1 0h3M1 27.5h3m3 0h2m1 0h2m1 0h1m1 0h1m1 0h5m2 0h1m2 0h4m1 0h4m2 0h1m1 0h1M1 28.5h1m1 0h1m1 0h2m1 0h1m1 0h1m1 0h2m1 0h1m2 0h1m3 0h3m3 0h1m3 0h1m1 0h3m1 0h4M1 29.5h4m1 0h3m1 0h1m2 0h3m2 0h2m4 0h1m1 0h1m2 0h1m2 0h3m1 0h1m1 0h1m2 0h1M1 30.5h4m3 0h2m5 0h4m2 0h1m3 0h3m1 0h1m3 0h3m1 0h1M1 31.5h2m3 0h2m1 0h1m4 0h1m2 0h1m1 0h2m2 0h1m1 0h4m1 0h1m2 0h2m3 0h1m2 0h1M1 32.5h2m1 0h1m1 0h1m1 0h2m2 0h1m1 0h1m1 0h1m1 0h1m3 0h3m1 0h2m7 0h2m2 0h1m1 0h1M1 33.5h2m1 0h5m3 0h1m1 0h4m2 0h2m1 0h4m1 0h1m2 0h1m1 0h7m1 0h1M9 34.5h1m1 0h7m1 0h4m2 0h6m1 0h2m3 0h3M1 35.5h7m1 0h1m3 0h1m1 0h1m1 0h1m1 0h1m1 0h1m2 0h2m2 0h1m3 0h2m1 0h1m1 0h3M1 36.5h1m5 0h1m2 0h6m1 0h1m2 0h1m1 0h1m1 0h1m1 0h1m2 0h1m1 0h1m1 0h1m3 0h1m2 0h2M1 37.5h1m1 0h3m1 0h1m1 0h1m1 0h2m3 0h4m1 0h2m3 0h1m1 0h1m1 0h1m1 0h7m1 0h2M1 38.5h1m1 0h3m1 0h1m1 0h1m1 0h1m1 0h1m3 0h1m2 0h1m1 0h1m5 0h2m1 0h3m2 0h1m4 0h1M1 39.5h1m1 0h3m1 0h1m2 0h4m2 0h4m2 0h2m1 0h2m1 0h3m1 0h1m1 0h1m1 0h3m1 0h2M1 40.5h1m5 0h1m4 0h3m4 0h1m1 0h2m3 0h1m2 0h1m4 0h1m2 0h3m1 0h1M1 41.5h7m3 0h2m1 0h1m1 0h1m1 0h1m1 0h7m1 0h1m2 0h5m1 0h1"/>
  </svg>

  <!-- Scan instruction -->
  <text x="250" y="534" text-anchor="middle" font-family="Arial, sans-serif" font-size="12" fill="#999999">Scan to follow us on Facebook</text>

  <!-- Footer bar -->
  <rect y="540" width="500" height="80" fill="#1877F2" clip-path="url(#card-clip)"/>
  <text x="250" y="570" text-anchor="middle" font-family="Arial, sans-serif" font-size="11" fill="rgba(255,255,255,0.80)" letter-spacing="1.5">FOLLOW · CONNECT · SHARE</text>
  <text x="250" y="596" text-anchor="middle" font-family="Georgia, serif" font-size="17" font-weight="bold" fill="#ffffff">giltcounselling.com</text>

  <!-- Card border -->
  <rect width="500" height="620" rx="24" ry="24" fill="none" stroke="#D9A85D" stroke-width="2.5"/>
</svg>