<?xml version="1.0" encoding="UTF-8"?>
<svg xmlns="http://www.w3.org/2000/svg" width="500" height="620" viewBox="0 0 500 620">
  <defs>
    <clipPath id="card-clip">
      <rect width="500" height="620" rx="24" ry="24"/>
    </clipPath>
  </defs>

  <!-- Card background -->
  <rect width="500" height="620" rx="24" ry="24" fill="#ffffff"/>

  <!-- Header bar -->
  <rect width="500" height="100" fill="#D9A85D" clip-path="url(#card-clip)"/>
  <text x="250" y="42" text-anchor="middle" font-family="Georgia, serif" font-size="20" font-weight="bold" fill="#ffffff" letter-spacing="0.5">Gilt Counselling Consult</text>
  <text x="250" y="68" text-anchor="middle" font-family="Arial, sans-serif" font-size="12" fill="rgba(255,255,255,0.85)" letter-spacing="1.5">COUNSELLING · COMMUNITY · CARE</text>
  <line x1="205" y1="80" x2="295" y2="80" stroke="rgba(255,255,255,0.45)" stroke-width="1"/>

  <!-- Platform icon (36×36) -->
  <path d="M12 0C8.74 0 8.333.015 7.053.072 5.775.132 4.905.333 4.14.63c-.789.306-1.459.717-2.126 1.384S.935 3.35.63 4.14C.333 4.905.131 5.775.072 7.053.012 8.333 0 8.74 0 12s.015 3.667.072 4.947c.06 1.277.261 2.148.558 2.913.306.788.717 1.459 1.384 2.126.667.666 1.336 1.079 2.126 1.384.766.296 1.636.499 2.913.558C8.333 23.988 8.74 24 12 24s3.667-.015 4.947-.072c1.277-.06 2.148-.262 2.913-.558.788-.306 1.459-.718 2.126-1.384.666-.667 1.079-1.335 1.384-2.126.296-.765.499-1.636.558-2.913.06-1.28.072-1.687.072-4.947s-.015-3.667-.072-4.947c-.06-1.277-.262-2.149-.558-2.913-.306-.789-.718-1.459-1.384-2.126C21.319 1.347 20.651.935 19.86.63c-.765-.297-1.636-.499-2.913-.558C15.667.012 15.26 0 12 0zm0 2.16c3.203 0 3.585.016 4.85.071 1.17.055 1.805.249 2.227.415.562.217.96.477 1.382.896.419.42.679.819.896 1.381.164.422.36 1.057.413 2.227.057 1.266.07 1.646.07 4.85s-.015 3.585-.074 4.85c-.061 1.17-.256 1.805-.421 2.227-.224.562-.479.96-.899 1.382-.419.419-.824.679-1.38.896-.42.164-1.065.36-2.235.413-1.274.057-1.649.07-4.859.07-3.211 0-3.586-.015-4.859-.074-1.171-.061-1.816-.256-2.236-.421-.569-.224-.96-.479-1.379-.899-.421-.419-.69-.824-.9-1.38-.165-.42-.359-1.065-.42-2.235-.045-1.26-.061-1.649-.061-4.844 0-3.196.016-3.586.061-4.861.061-1.17.255-1.814.42-2.234.21-.57.479-.96.9-1.381.419-.419.81-.689 1.379-.898.42-.166 1.051-.361 2.221-.421 1.275-.045 1.65-.06 4.859-.06l.045.03zm0 3.678c-3.405 0-6.162 2.76-6.162 6.162 0 3.405 2.76 6.162 6.162 6.162 3.405 0 6.162-2.76 6.162-6.162 0-3.405-2.76-6.162-6.162-6.162zM12 16c-2.21 0-4-1.79-4-4s1.79-4 4-4 4 1.79 4 4-1.79 4-4 4zm7.846-10.405c0 .795-.646 1.44-1.44 1.44-.795 0-1.44-.646-1.44-1.44 0-.794.646-1.439 1.44-1.439.793-.001 1.44.645 1.44 1.439z" fill="#E4405F" transform="translate(232, 112) scale(1.5)"/>

  <!-- Platform name and handle -->
  <text x="250" y="166" text-anchor="middle" font-family="Georgia, serif" font-size="22" font-weight="bold" fill="#1a1a1a">Instagram</text>
  <text x="250" y="190" text-anchor="middle" font-family="Arial, sans-serif" font-size="14" fill="#666666">@giltcounsellingconsult</text>

  <!-- QR Code -->
  <rect x="90" y="200" width="320" height="320" rx="10" fill="#f7f7f7"/>
  <svg x="100" y="210" width="300" height="300" viewBox="0 0 51 51">
    <path fill="#ffffff" d="M0 0h51v51H0z"/><path stroke="#000000" d="M1 1.5h7m2 0h3m1 0h1m2 0h2m1 0h2m4 0h1m1 0h2m2 0h2m1 0h1m5 0h1m1 0h7M1 2.5h1m5 0h1m2 0h2m3 0h2m6 0h1m2 0h1m1 0h1m1 0h1m1 0h2m1 0h2m1 0h4m1 0h1m5 0h1M1 3.5h1m1 0h3m1 0h1m1 0h5m2 0h2m3 0h3m2 0h1m2 0h1m2 0h2m2 0h1m1 0h1m1 0h2m1 0h1m1 0h3m1 0h1M1 4.5h1m1 0h3m1 0h1m1 0h3m2 0h1m3 0h2m1 0h1m2 0h3m3 0h2m1 0h1m1 0h4m1 0h1m2 0h1m1 0h3m1 0h1M1 5.5h1m1 0h3m1 0h1m3 0h1m2 0h1m1 0h1m2 0h1m1 0h1m1 0h6m2 0h1m6 0h1m4 0h1m1 0h3m1 0h1M1 6.5h1m5 0h1m2 0h1m3 0h3m2 0h1m2 0h2m3 0h1m1 0h1m1 0h3m3 0h3m3 0h1m5 0h1M1 7.5h7m1 0h1m1 0h1m1 0h1m1 0h1m1 0h1m1 0h1m1 0h1m1 0h1m1 0h1m1 0h1m1 0h1m1 0h1m1 0h1m1 0h1m1 0h1m1 0h1m1 0h1m1 0h7M10 8.5h3m1 0h1m1 0h5m2 0h1m3 0h1m1 0h1m1 0h1m4 0h2m1 0h3M4 9.5h2m1 0h2m8 0h1m3 0h7m2 0h1m2 0h1m3 0h2m1 0h1m5 0h2M3 10.5h1m1 0h1m4 0h1m1 0h1m4 0h5m2 0h1m1 0h1m2 0h2m2 0h5m1 0h6m1 0h2M1 11.5h2m1 0h1m2 0h3m2 0h6m1 0h3m1 0h3m1 0h1m3 0h1m1 0h6m6 0h2m2 0h1M2 12.5h1m2 0h2m1 0h1m1 0h6m1 0h4m6 0h2m2 0h3m2 0h1m1 0h2m1 0h1m1 0h1m1 0h3M1 13.5h1m1 0h1m1 0h1m1 0h4m3 0h5m1 0h4m1 0h1m3 0h1m2 0h1m4 0h1m1 0h2m2 0h1m1 0h5M3 14.5h2m4 0h1m1 0h2m4 0h1m1 0h1m5 0h2m2 0h1m3 0h2m4 0h1m2 0h2m2 0h2M1 15.5h1m1 0h1m1 0h5m3 0h2m1 0h5m1 0h2m1 0h1m1 0h1m1 0h1m1 0h1m3 0h6m2 0h2m2 0h3M1 16.5h5m5 0h3m2 0h1m1 0h1m5 0h2m1 0h2m3 0h1m1 0h1m1 0h1m1 0h1m3 0h1m3 0h4M2 17.5h2m2 0h2m1 0h3m3 0h2m3 0h1m1 0h1m5 0h3m3 0h2m1 0h1m5 0h4m1 0h1M1 18.5h5m2 0h2m3 0h3m1 0h1m2 0h2m1 0h1m2 0h2m2 0h1m2 0h2m3 0h2m1 0h4M1 19.5h4m1 0h2m3 0h1m1 0h3m1 0h2m1 0h1m3 0h2m2 0h1m3 0h1m1 0h2m1 0h3m1 0h7m1 0h1M3 20.5h1m1 0h2m1 0h1m3 0h1m3 0h1m2 0h3m4 0h1m1 0h2m4 0h1m8 0h1m2 0h1M2 21.5h1m3 0h3m1 0h4m1 0h1m3 0h3m2 0h2m3 0h1m2 0h1m3 0h2m1 0h2m2 0h1m4 0h1M2 22.5h1m1 0h2m2 0h1m1 0h1m1 0h4m2 0h3m2 0h1m3 0h1m2 0h2m1 0h1m1 0h1m1 0h1m1 0h5m1 0h1m1 0h1M3 23.5h10m1 0h4m5 0h7m1 0h5m4 0h6m1 0h1m1 0h1M1 24.5h2m1 0h2m3 0h1m1 0h3m1 0h1m2 0h1m2 0h3m3 0h3m1 0h2m1 0h1m1 0h1m1 0h4m3 0h4M1 25.5h1m1 0h3m1 0h1m1 0h4m2 0h3m2 0h1m1 0h2m1 0h1m1 0h1m2 0h1m1 0h2m1 0h1m1 0h1m1 0h1m1 0h1m1 0h1m1 0h1m2 0h1M4 26.5h2m3 0h1m6 0h1m1 0h1m1 0h2m1 0h1m3 0h1m1 0h2m2 0h1m2 0h1m1 0h2m1 0h1m3 0h3m1 0h1M2 27.5h2m1 0h6m1 0h1m1 0h2m1 0h1m1 0h1m1 0h1m1 0h5m1 0h1m1 0h2m1 0h1m2 0h3m1 0h9M3 28.5h1m7 0h4m1 0h3m1 0h1m5 0h1m3 0h2m4 0h1m2 0h2m1 0h1m1 0h5M2 29.5h1m3 0h2m8 0h2m3 0h1m1 0h2m1 0h1m2 0h1m1 0h3m3 0h2m1 0h1m2 0h2m2 0h2M1 30.5h1m4 0h1m2 0h1m2 0h6m3 0h1m1 0h4m3 0h1m2 0h3m2 0h1m7 0h1m2 0h1M1 31.5h2m3 0h3m1 0h1m1 0h6m3 0h1m4 0h1m6 0h2m2 0h2m2 0h1m1 0h1m1 0h1m3 0h1M4 32.5h3m1 0h3m2 0h1m1 0h3m2 0h2m2 0h1m4 0h5m1 0h1m1 0h1m2 0h3m3 0h1m1 0h2M1 33.5h3m3 0h1m3 0h3m1 0h2m1 0h10m1 0h1m1 0h1m1 0h4m2 0h2m1 0h1m1 0h3m1 0h1M1 34.5h2m6 0h1m1 0h7m4 0h2m5 0h1m5 0h1m2 0h2m2 0h1m1 0h4M1 35.5h1m1 0h1m1 0h1m1 0h2m3 0h4m2 0h2m1 0h2m1 0h1m1 0h1m1 0h3m1 0h1m2 0h1m4 0h1m2 0h5m1 0h1M2 36.5h3m3 0h3m1 0h1m1 0h1m1 0h1m1 0h3m2 0h2m1 0h2m1 0h3m5 0h2m1 0h1m4 0h3M1 37.5h1m5 0h3m1 0h2m2 0h1m1 0h1m3 0h1m1 0h5m1 0h3m1 0h1m1 0h1m1 0h5m1 0h1m2 0h1m2 0h1M3 38.5h1m6 0h1m3 0h1m2 0h1m2 0h2m5 0h1m1 0h1m1 0h2m1 0h1m1 0h1m1 0h3m1 0h2m1 0h1M2 39.5h1m3 0h2m1 0h1m1 0h3m3 0h2m1 0h2m1 0h1m1 0h1m1 0h3m2 0h2m3 0h1m1 0h2m1 0h4m1 0h3M2 40.5h3m3 0h1m1 0h2m1 0h1m2 0h2m1 0h2m1 0h1m1 0h1m4 0h2m2 0h1m1 0h1m3 0h3m2 0h1m2 0h2M1 41.5h3m3 0h2m5 0h2m3 0h2m2 0h5m2 0h4m3 0h9m1 0h1m1 0h1M9 42.5h1m1 0h3m1 0h3m2 0h2m1 0h1m3 0h1m1 0h1m1 0h2m2 0h1m1 0h1m2 0h2m3 0h4M1 43.5h7m1 0h4m2 0h1m1 0h3m1 0h3m1 0h1m1 0h2m2 0h1m3 0h2m2 0h1m1 0h1m1 0h1m1 0h3m1 0h1M1 44.5h1m5 0h1m4 0h1m1 0h4m2 0h4m3 0h1m4 0h1m1 0h2m5 0h1m3 0h2m1 0h2M1 45.5h1m1 0h3m1 0h1m1 0h2m2 0h2m1 0h3m4 0h5m1 0h2m3 0h1m1 0h2m1 0h7M1 46.5h1m1 0h3m1 0h1m1 0h1m1 0h1m1 0h3m6 0h3m4 0h1m1 0h1m2 0h6m1 0h3m2 0h2m1 0h1M1 47.5h1m1 0h3m1 0h1m2 0h1m2 0h1m1 0h1m2 0h4m1 0h3m2 0h2m2 0h1m1 0h2m1 0h2m2 0h1m2 0h3m2 0h1M1 48.5h1m5 0h1m5 0h1m2 0h2m3 0h2m1 0h1m1 0h1m1 0h4m1 0h2m1 0h1m1 0h2m3 0h1m2 0h4M1 49.5h7m2 0h3m2 0h1m1 0h2m1 0h2m1 0h1m1 0h3m1 0h3m1 0h1m3 0h2m4 0h1m1 0h2m2 0h1"/>
  </svg>

  <!-- Scan instruction -->
  <text x="250" y="534" text-anchor="middle" font-family="Arial, sans-serif" font-size="12" fill="#999999">Scan to follow us on Instagram</text>

  <!-- Footer bar -->
  <rect y="540" width="500" height="80" fill="#E4405F" clip-path="url(#card-clip)"/>
  <text x="250" y="570" text-anchor="middle" font-family="Arial, sans-serif" font-size="11" fill="rgba(255,255,255,0.80)" letter-spacing="1.5">FOLLOW · CONNECT · SHARE</text>
  <text x="250" y="596" text-anchor="middle" font-family="Georgia, serif" font-size="17" font-weight="bold" fill="#ffffff">giltcounselling.com</text>

  <!-- Card border -->
  <rect width="500" height="620" rx="24" ry="24" fill="none" stroke="#D9A85D" stroke-width="2.5"/>
</svg>