<?xml version="1.0" encoding="UTF-8"?>
<svg xmlns="http://www.w3.org/2000/svg" width="500" height="620" viewBox="0 0 500 620">
  <defs>
    <clipPath id="card-clip">
      <rect width="500" height="620" rx="24" ry="24"/>
    </clipPath>
  </defs>

  <!-- Card background -->
  <rect width="500" height="620" rx="24" ry="24" fill="#ffffff"/>

  <!-- Header bar -->
  <rect width="500" height="100" fill="#D9A85D" clip-path="url(#card-clip)"/>
  <text x="250" y="42" text-anchor="middle" font-family="Georgia, serif" font-size="20" font-weight="bold" fill="#ffffff" letter-spacing="0.5">Gilt Counselling Consult</text>
  <text x="250" y="68" text-anchor="middle" font-family="Arial, sans-serif" font-size="12" fill="rgba(255,255,255,0.85)" letter-spacing="1.5">COUNSELLING · COMMUNITY · CARE</text>
  <line x1="205" y1="80" x2="295" y2="80" stroke="rgba(255,255,255,0.45)" stroke-width="1"/>

  <!-- Platform icon (36×36) -->
  <path d="M12.525.02c1.31-.02 2.61-.01 3.91-.02.08 1.53.63 3.09 1.75 4.17 1.12 1.11 2.7 1.62 4.24 1.79v4.03c-1.44-.05-2.89-.35-4.2-.97-.57-.26-1.1-.59-1.62-.93-.01 2.92.01 5.84-.02 8.75-.08 1.4-.54 2.79-1.35 3.94-1.31 1.92-3.58 3.17-5.91 3.21-1.43.08-2.86-.31-4.08-1.03-2.02-1.19-3.44-3.37-3.65-5.71-.02-.5-.03-1-.01-1.49.18-1.9 1.12-3.72 2.58-4.96 1.66-1.44 3.98-2.13 6.15-1.72.02 1.48-.04 2.96-.04 4.44-.99-.32-2.15-.23-3.02.37-.63.41-1.11 1.04-1.36 1.75-.21.51-.15 1.07-.14 1.61.24 1.64 1.82 3.02 3.5 2.87 1.12-.01 2.19-.66 2.77-1.61.19-.33.4-.67.41-1.06.1-1.79.06-3.57.07-5.36.01-4.03-.01-8.05.02-12.07z" fill="#1a1a1a" transform="translate(232, 112) scale(1.5)"/>

  <!-- Platform name and handle -->
  <text x="250" y="166" text-anchor="middle" font-family="Georgia, serif" font-size="22" font-weight="bold" fill="#1a1a1a">TikTok</text>
  <text x="250" y="190" text-anchor="middle" font-family="Arial, sans-serif" font-size="14" fill="#666666">@giltcounsellingconsult</text>

  <!-- QR Code -->
  <rect x="90" y="200" width="320" height="320" rx="10" fill="#f7f7f7"/>
  <svg x="100" y="210" width="300" height="300" viewBox="0 0 51 51">
    <path fill="#ffffff" d="M0 0h51v51H0z"/><path stroke="#000000" d="M1 1.5h7m1 0h1m4 0h1m3 0h2m2 0h2m1 0h1m1 0h1m2 0h2m5 0h1m3 0h1m1 0h7M1 2.5h1m5 0h1m1 0h2m2 0h1m3 0h8m1 0h1m2 0h1m1 0h2m1 0h2m1 0h5m1 0h1m5 0h1M1 3.5h1m1 0h3m1 0h1m1 0h1m2 0h1m1 0h3m1 0h3m1 0h1m1 0h4m3 0h1m3 0h2m3 0h2m1 0h1m1 0h3m1 0h1M1 4.5h1m1 0h3m1 0h1m3 0h1m1 0h1m2 0h1m1 0h3m1 0h2m1 0h3m1 0h1m3 0h6m1 0h1m2 0h1m1 0h3m1 0h1M1 5.5h1m1 0h3m1 0h1m2 0h1m2 0h4m4 0h7m3 0h2m3 0h1m1 0h1m4 0h1m1 0h3m1 0h1M1 6.5h1m5 0h1m1 0h1m2 0h1m1 0h2m3 0h1m2 0h2m3 0h2m1 0h1m2 0h5m1 0h1m3 0h1m5 0h1M1 7.5h7m1 0h1m1 0h1m1 0h1m1 0h1m1 0h1m1 0h1m1 0h1m1 0h1m1 0h1m1 0h1m1 0h1m1 0h1m1 0h1m1 0h1m1 0h1m1 0h1m1 0h1m1 0h7M9 8.5h1m5 0h4m1 0h2m1 0h1m3 0h1m1 0h1m1 0h1m1 0h1m3 0h3M3 9.5h3m1 0h1m1 0h3m2 0h2m4 0h2m1 0h6m1 0h1m1 0h1m1 0h3m1 0h7m2 0h3M1 10.5h2m3 0h1m2 0h1m4 0h3m3 0h1m1 0h1m1 0h6m2 0h2m4 0h1m3 0h2m2 0h3M3 11.5h1m3 0h1m2 0h1m2 0h1m1 0h2m3 0h4m1 0h1m1 0h1m1 0h1m1 0h1m1 0h1m2 0h1m1 0h2m1 0h2m1 0h6M1 12.5h2m6 0h1m4 0h3m2 0h1m3 0h4m1 0h1m1 0h1m6 0h1m1 0h2m4 0h1M1 13.5h7m2 0h1m2 0h3m3 0h1m1 0h5m2 0h3m4 0h3m1 0h6m3 0h1M1 14.5h1m2 0h1m3 0h1m2 0h1m2 0h1m2 0h1m1 0h1m2 0h1m1 0h1m7 0h2m3 0h2m1 0h1m2 0h2m1 0h1M1 15.5h4m1 0h5m2 0h1m1 0h1m2 0h1m2 0h4m2 0h1m1 0h1m2 0h6m2 0h3m1 0h1m3 0h2M2 16.5h1m2 0h1m2 0h1m1 0h2m2 0h1m3 0h4m5 0h4m1 0h3m5 0h3m2 0h2m2 0h1M1 17.5h1m1 0h2m1 0h5m4 0h2m3 0h1m1 0h1m1 0h2m1 0h2m2 0h1m1 0h1m3 0h2m1 0h1m3 0h1m3 0h2M1 18.5h1m1 0h1m6 0h1m1 0h1m2 0h1m2 0h7m2 0h1m3 0h1m1 0h2m1 0h2m3 0h2m1 0h4M3 19.5h1m1 0h1m1 0h3m1 0h3m1 0h2m3 0h2m1 0h1m1 0h1m2 0h1m1 0h1m2 0h1m3 0h2m1 0h2m1 0h4m1 0h2M5 20.5h1m3 0h2m2 0h4m1 0h3m3 0h3m3 0h2m6 0h2m1 0h1m1 0h3m2 0h2M2 21.5h2m2 0h3m4 0h1m5 0h2m1 0h1m2 0h1m3 0h2m4 0h6m2 0h2m2 0h1M3 22.5h3m2 0h4m4 0h1m1 0h4m1 0h3m2 0h1m1 0h2m2 0h1m1 0h2m4 0h2m2 0h2M1 23.5h3m1 0h5m2 0h1m1 0h1m1 0h3m3 0h6m1 0h7m3 0h1m1 0h5m1 0h3M1 24.5h2m2 0h1m3 0h1m1 0h1m1 0h1m1 0h3m1 0h1m2 0h2m3 0h1m2 0h1m6 0h3m1 0h1m3 0h1m2 0h2M4 25.5h2m1 0h1m1 0h6m3 0h2m3 0h1m1 0h1m1 0h7m1 0h5m1 0h1m1 0h1m1 0h1m1 0h3M3 26.5h1m1 0h1m3 0h1m2 0h2m1 0h1m2 0h1m2 0h1m1 0h1m3 0h1m5 0h1m2 0h1m1 0h1m1 0h2m3 0h2m2 0h1M4 27.5h6m5 0h1m5 0h1m1 0h5m1 0h1m2 0h5m2 0h1m1 0h5m1 0h2M2 28.5h1m2 0h1m4 0h3m1 0h1m1 0h2m1 0h3m5 0h1m2 0h1m5 0h1m1 0h5m1 0h1M7 29.5h2m1 0h1m1 0h1m2 0h3m1 0h1m3 0h1m3 0h1m3 0h1m3 0h3m2 0h2m2 0h1m1 0h3M2 30.5h1m5 0h1m1 0h3m3 0h1m2 0h1m2 0h2m4 0h2m6 0h1m1 0h1m2 0h2m3 0h1m1 0h2M1 31.5h1m4 0h2m1 0h1m1 0h1m4 0h5m1 0h1m2 0h2m1 0h1m3 0h1m1 0h4m1 0h1m3 0h2m2 0h3M1 32.5h1m1 0h1m1 0h2m2 0h1m5 0h2m4 0h2m1 0h7m1 0h1m2 0h3m3 0h1m6 0h2M1 33.5h4m2 0h2m1 0h4m2 0h3m1 0h2m1 0h2m2 0h2m1 0h2m3 0h1m1 0h1m1 0h4m1 0h2m1 0h2M1 34.5h2m6 0h1m6 0h5m1 0h3m3 0h2m2 0h1m3 0h2m8 0h1M3 35.5h1m1 0h3m1 0h3m1 0h4m1 0h1m1 0h1m1 0h2m1 0h4m1 0h2m3 0h1m1 0h4m1 0h3m2 0h3M1 36.5h1m1 0h1m1 0h1m4 0h1m3 0h1m2 0h2m1 0h1m2 0h3m5 0h1m1 0h1m3 0h3m1 0h2m1 0h3m1 0h1M2 37.5h4m1 0h1m1 0h1m2 0h2m2 0h1m4 0h3m2 0h1m1 0h5m3 0h2m2 0h1m1 0h2m1 0h4M2 38.5h2m4 0h9m2 0h1m3 0h2m2 0h2m8 0h2m2 0h1m1 0h2m2 0h2M2 39.5h1m3 0h2m3 0h1m1 0h2m1 0h3m2 0h3m1 0h1m4 0h2m1 0h2m1 0h2m1 0h1m1 0h1m1 0h2m1 0h4M2 40.5h3m3 0h2m2 0h1m8 0h3m4 0h2m1 0h3m1 0h2m1 0h2m2 0h1m1 0h1m2 0h1m1 0h1M1 41.5h3m3 0h1m3 0h1m2 0h1m3 0h1m4 0h8m3 0h2m1 0h1m1 0h8m1 0h1M9 42.5h1m1 0h1m1 0h4m1 0h2m1 0h3m3 0h3m5 0h5m1 0h1m3 0h1M1 43.5h7m4 0h1m2 0h1m2 0h3m2 0h1m1 0h1m1 0h1m1 0h1m1 0h2m1 0h1m1 0h1m4 0h1m1 0h1m1 0h2m1 0h2M1 44.5h1m5 0h1m4 0h1m2 0h2m1 0h3m2 0h1m3 0h3m1 0h1m1 0h1m1 0h1m2 0h4m3 0h1m3 0h1M1 45.5h1m1 0h3m1 0h1m1 0h1m1 0h1m1 0h4m5 0h8m2 0h1m1 0h12m1 0h3M1 46.5h1m1 0h3m1 0h1m1 0h1m2 0h2m1 0h1m3 0h1m3 0h1m3 0h1m2 0h4m3 0h2m3 0h4m3 0h1M1 47.5h1m1 0h3m1 0h1m1 0h2m1 0h1m1 0h1m1 0h2m2 0h1m3 0h2m1 0h1m3 0h1m3 0h2m1 0h3m3 0h1m1 0h1m1 0h2M1 48.5h1m5 0h1m2 0h1m1 0h6m2 0h1m1 0h3m1 0h2m5 0h3m2 0h2m2 0h4m3 0h1M1 49.5h7m2 0h2m3 0h2m6 0h3m1 0h1m4 0h1m4 0h2m1 0h1m1 0h8"/>
  </svg>

  <!-- Scan instruction -->
  <text x="250" y="534" text-anchor="middle" font-family="Arial, sans-serif" font-size="12" fill="#999999">Scan to follow us on TikTok</text>

  <!-- Footer bar -->
  <rect y="540" width="500" height="80" fill="#010101" clip-path="url(#card-clip)"/>
  <text x="250" y="570" text-anchor="middle" font-family="Arial, sans-serif" font-size="11" fill="rgba(255,255,255,0.80)" letter-spacing="1.5">FOLLOW · CONNECT · SHARE</text>
  <text x="250" y="596" text-anchor="middle" font-family="Georgia, serif" font-size="17" font-weight="bold" fill="#ffffff">giltcounselling.com</text>

  <!-- Card border -->
  <rect width="500" height="620" rx="24" ry="24" fill="none" stroke="#D9A85D" stroke-width="2.5"/>
</svg>