<?xml version="1.0" encoding="UTF-8"?>
<svg xmlns="http://www.w3.org/2000/svg" width="500" height="620" viewBox="0 0 500 620">
  <defs>
    <clipPath id="card-clip">
      <rect width="500" height="620" rx="24" ry="24"/>
    </clipPath>
  </defs>

  <!-- Card background -->
  <rect width="500" height="620" rx="24" ry="24" fill="#ffffff"/>

  <!-- Header bar -->
  <rect width="500" height="100" fill="#D9A85D" clip-path="url(#card-clip)"/>
  <text x="250" y="42" text-anchor="middle" font-family="Georgia, serif" font-size="20" font-weight="bold" fill="#ffffff" letter-spacing="0.5">Gilt Counselling Consult</text>
  <text x="250" y="68" text-anchor="middle" font-family="Arial, sans-serif" font-size="12" fill="rgba(255,255,255,0.85)" letter-spacing="1.5">COUNSELLING · COMMUNITY · CARE</text>
  <line x1="205" y1="80" x2="295" y2="80" stroke="rgba(255,255,255,0.45)" stroke-width="1"/>

  <!-- Platform icon (36×36) -->
  <path d="M23.498 6.186a3.016 3.016 0 0 0-2.122-2.136C19.505 3.545 12 3.545 12 3.545s-7.505 0-9.377.505A3.017 3.017 0 0 0 .502 6.186C0 8.07 0 12 0 12s0 3.93.502 5.814a3.016 3.016 0 0 0 2.122 2.136c1.871.505 9.376.505 9.376.505s7.505 0 9.377-.505a3.015 3.015 0 0 0 2.122-2.136C24 15.93 24 12 24 12s0-3.93-.502-5.814zM9.545 15.568V8.432L15.818 12l-6.273 3.568z" fill="#FF0000" transform="translate(232, 112) scale(1.5)"/>

  <!-- Platform name and handle -->
  <text x="250" y="166" text-anchor="middle" font-family="Georgia, serif" font-size="22" font-weight="bold" fill="#1a1a1a">YouTube</text>
  <text x="250" y="190" text-anchor="middle" font-family="Arial, sans-serif" font-size="14" fill="#666666">@giltcounsellingconsult</text>

  <!-- QR Code -->
  <rect x="90" y="200" width="320" height="320" rx="10" fill="#f7f7f7"/>
  <svg x="100" y="210" width="300" height="300" viewBox="0 0 47 47">
    <path fill="#ffffff" d="M0 0h47v47H0z"/><path stroke="#000000" d="M1 1.5h7m1 0h2m6 0h1m1 0h1m2 0h3m1 0h3m2 0h1m1 0h2m2 0h1m1 0h7M1 2.5h1m5 0h1m3 0h1m2 0h4m3 0h6m3 0h1m1 0h1m1 0h1m1 0h1m2 0h1m5 0h1M1 3.5h1m1 0h3m1 0h1m1 0h1m1 0h1m3 0h2m1 0h1m3 0h2m1 0h2m1 0h1m1 0h1m1 0h1m1 0h1m1 0h1m2 0h1m1 0h3m1 0h1M1 4.5h1m1 0h3m1 0h1m2 0h1m2 0h2m1 0h1m1 0h2m1 0h2m4 0h1m3 0h4m1 0h2m1 0h1m1 0h3m1 0h1M1 5.5h1m1 0h3m1 0h1m1 0h2m3 0h2m5 0h8m1 0h2m3 0h3m1 0h1m1 0h3m1 0h1M1 6.5h1m5 0h1m2 0h1m1 0h1m2 0h1m5 0h1m3 0h2m3 0h1m8 0h1m5 0h1M1 7.5h7m1 0h1m1 0h1m1 0h1m1 0h1m1 0h1m1 0h1m1 0h1m1 0h1m1 0h1m1 0h1m1 0h1m1 0h1m1 0h1m1 0h1m1 0h1m1 0h7M9 8.5h1m1 0h2m1 0h2m1 0h1m3 0h1m3 0h1m1 0h1m3 0h2m1 0h2M6 9.5h2m4 0h2m2 0h3m2 0h6m2 0h2m1 0h1m2 0h1m3 0h1m1 0h1m1 0h1m1 0h1M2 10.5h1m1 0h3m2 0h1m6 0h3m1 0h3m1 0h2m2 0h1m1 0h4m1 0h6m3 0h1M1 11.5h3m1 0h1m1 0h1m1 0h6m1 0h5m2 0h1m1 0h1m1 0h1m1 0h1m3 0h4m5 0h3M2 12.5h4m3 0h2m3 0h2m1 0h3m1 0h2m2 0h1m4 0h2m1 0h3m1 0h1m2 0h4m1 0h1M2 13.5h1m1 0h4m5 0h5m1 0h3m1 0h2m2 0h2m4 0h1m2 0h1m1 0h2m1 0h1m1 0h1M1 14.5h3m4 0h1m1 0h2m1 0h1m3 0h1m2 0h2m4 0h1m1 0h7m1 0h3m6 0h1M1 15.5h1m1 0h1m1 0h1m1 0h1m2 0h1m1 0h1m1 0h1m1 0h1m5 0h1m2 0h1m1 0h1m3 0h2m1 0h1m2 0h3m1 0h1m1 0h2M1 16.5h5m2 0h3m1 0h2m7 0h1m2 0h3m2 0h3m2 0h1m1 0h1m2 0h2m1 0h3M3 17.5h1m2 0h4m1 0h2m1 0h1m2 0h3m2 0h2m3 0h1m4 0h1m1 0h1m3 0h2m2 0h1M3 18.5h1m1 0h1m3 0h3m4 0h3m1 0h2m2 0h2m1 0h1m3 0h2m1 0h1m2 0h2m2 0h1m1 0h1m1 0h1M2 19.5h2m2 0h2m1 0h1m1 0h1m4 0h1m3 0h1m2 0h2m1 0h1m3 0h3m1 0h1m2 0h2m3 0h1m2 0h1M4 20.5h1m1 0h1m3 0h2m3 0h4m2 0h1m2 0h1m2 0h1m2 0h1m1 0h2m1 0h2m4 0h4M2 21.5h1m2 0h6m2 0h1m1 0h1m1 0h1m1 0h10m3 0h1m4 0h5m2 0h1M1 22.5h1m3 0h1m3 0h2m1 0h1m3 0h2m1 0h1m1 0h1m3 0h1m1 0h4m1 0h1m2 0h3m3 0h2M1 23.5h5m1 0h1m1 0h1m1 0h4m1 0h2m2 0h2m1 0h1m1 0h1m3 0h1m1 0h3m1 0h1m1 0h1m1 0h1m1 0h2m1 0h1M1 24.5h1m1 0h3m3 0h3m2 0h6m1 0h1m3 0h3m1 0h2m1 0h1m1 0h2m1 0h1m3 0h5M1 25.5h1m1 0h9m1 0h3m1 0h1m3 0h7m1 0h1m3 0h2m1 0h6M2 26.5h1m1 0h2m2 0h1m2 0h2m1 0h1m1 0h5m2 0h3m1 0h2m1 0h1m2 0h2m1 0h5m2 0h3M2 27.5h2m2 0h2m1 0h2m2 0h1m1 0h1m1 0h1m7 0h1m1 0h1m2 0h1m5 0h1m1 0h1m1 0h3M1 28.5h1m1 0h1m5 0h2m1 0h3m4 0h1m3 0h2m2 0h2m2 0h4m1 0h1m3 0h1m1 0h2M6 29.5h4m7 0h1m1 0h1m4 0h1m2 0h2m1 0h3m2 0h1m1 0h2m2 0h2m1 0h2M3 30.5h2m4 0h1m3 0h1m1 0h4m4 0h5m2 0h2m1 0h2m2 0h1m2 0h1m4 0h1M1 31.5h2m1 0h1m2 0h1m1 0h1m2 0h1m1 0h2m1 0h1m1 0h3m1 0h1m1 0h2m3 0h1m1 0h2m2 0h1m1 0h4m1 0h1m1 0h1M1 32.5h2m1 0h1m3 0h1m1 0h3m4 0h3m1 0h1m1 0h3m2 0h1m1 0h2m1 0h1m2 0h1m1 0h3m1 0h4M1 33.5h2m1 0h1m1 0h2m4 0h1m1 0h2m1 0h1m1 0h1m1 0h1m1 0h2m3 0h3m1 0h1m1 0h1m3 0h1m1 0h2m1 0h3M3 34.5h4m1 0h1m1 0h1m1 0h1m1 0h1m1 0h2m1 0h1m1 0h3m6 0h1m3 0h3m2 0h5M5 35.5h1m1 0h2m3 0h1m2 0h1m2 0h2m3 0h1m2 0h2m2 0h9m1 0h2m1 0h2M2 36.5h4m2 0h1m1 0h1m1 0h2m3 0h3m1 0h2m1 0h2m2 0h1m1 0h2m1 0h1m1 0h2m1 0h3m1 0h2M1 37.5h1m2 0h2m1 0h1m3 0h1m1 0h2m1 0h4m1 0h5m1 0h1m5 0h1m1 0h7m3 0h1M9 38.5h4m1 0h1m2 0h1m1 0h1m1 0h1m3 0h1m1 0h2m3 0h3m1 0h2m3 0h5M1 39.5h7m2 0h4m2 0h1m3 0h2m1 0h1m1 0h1m2 0h5m1 0h2m1 0h1m1 0h1m1 0h4M1 40.5h1m5 0h1m1 0h1m2 0h1m2 0h4m1 0h2m3 0h5m4 0h1m1 0h2m3 0h1m1 0h1m1 0h1M1 41.5h1m1 0h3m1 0h1m2 0h1m2 0h1m1 0h2m1 0h2m1 0h5m1 0h1m2 0h3m4 0h5m2 0h1M1 42.5h1m1 0h3m1 0h1m3 0h2m2 0h1m1 0h2m1 0h2m1 0h2m1 0h2m1 0h2m1 0h1m1 0h1m6 0h5M1 43.5h1m1 0h3m1 0h1m2 0h2m1 0h2m1 0h3m3 0h2m4 0h2m1 0h2m1 0h2m1 0h1m3 0h1m1 0h3M1 44.5h1m5 0h1m3 0h1m1 0h3m1 0h1m1 0h5m3 0h1m1 0h2m1 0h1m1 0h1m1 0h1m3 0h1m1 0h2M1 45.5h7m2 0h1m2 0h3m7 0h2m1 0h1m2 0h2m1 0h1m3 0h1m1 0h2m4 0h1"/>
  </svg>

  <!-- Scan instruction -->
  <text x="250" y="534" text-anchor="middle" font-family="Arial, sans-serif" font-size="12" fill="#999999">Scan to follow us on YouTube</text>

  <!-- Footer bar -->
  <rect y="540" width="500" height="80" fill="#FF0000" clip-path="url(#card-clip)"/>
  <text x="250" y="570" text-anchor="middle" font-family="Arial, sans-serif" font-size="11" fill="rgba(255,255,255,0.80)" letter-spacing="1.5">FOLLOW · CONNECT · SHARE</text>
  <text x="250" y="596" text-anchor="middle" font-family="Georgia, serif" font-size="17" font-weight="bold" fill="#ffffff">giltcounselling.com</text>

  <!-- Card border -->
  <rect width="500" height="620" rx="24" ry="24" fill="none" stroke="#D9A85D" stroke-width="2.5"/>
</svg>